<mxfile host="Electron" agent="Mozilla/5.0 (Windows NT 10.0; Win64; x64) AppleWebKit/537.36 (KHTML, like Gecko) draw.io/24.7.17 Chrome/128.0.6613.36 Electron/32.0.1 Safari/537.36" version="24.7.17">
  <diagram name="Página-1" id="ep_Sr_sNFWPs7ZKycEsy">
    <mxGraphModel dx="349" dy="284" grid="1" gridSize="10" guides="1" tooltips="1" connect="1" arrows="1" fold="1" page="1" pageScale="1" pageWidth="827" pageHeight="1169" math="0" shadow="0">
      <root>
        <mxCell id="0" />
        <mxCell id="1" parent="0" />
        <mxCell id="uH7pmurkE3hfBIkgmpZg-34" value="" style="group" vertex="1" connectable="0" parent="1">
          <mxGeometry x="239.65671825551797" y="117.48064201312805" width="206.345632137298" height="211.29637579604508" as="geometry" />
        </mxCell>
        <mxCell id="uH7pmurkE3hfBIkgmpZg-13" value="" style="group;rotation=-30;" vertex="1" connectable="0" parent="uH7pmurkE3hfBIkgmpZg-34">
          <mxGeometry x="19.672350392815957" y="18.647017809173164" width="167.0009313516661" height="174.00234017769878" as="geometry" />
        </mxCell>
        <mxCell id="uH7pmurkE3hfBIkgmpZg-1" value="" style="ellipse;whiteSpace=wrap;html=1;aspect=fixed;rotation=-30;" vertex="1" parent="uH7pmurkE3hfBIkgmpZg-13">
          <mxGeometry x="19" y="25" width="120" height="120" as="geometry" />
        </mxCell>
        <mxCell id="uH7pmurkE3hfBIkgmpZg-2" value="" style="rounded=0;whiteSpace=wrap;html=1;rotation=-120;" vertex="1" parent="uH7pmurkE3hfBIkgmpZg-13">
          <mxGeometry x="114" y="40" width="50" height="20" as="geometry" />
        </mxCell>
        <mxCell id="uH7pmurkE3hfBIkgmpZg-3" value="" style="rounded=0;whiteSpace=wrap;html=1;rotation=-13;" vertex="1" parent="uH7pmurkE3hfBIkgmpZg-13">
          <mxGeometry x="39" y="7" width="50" height="20" as="geometry" />
        </mxCell>
        <mxCell id="uH7pmurkE3hfBIkgmpZg-5" value="" style="rounded=0;whiteSpace=wrap;html=1;rotation=-85;" vertex="1" parent="uH7pmurkE3hfBIkgmpZg-13">
          <mxGeometry x="-16" y="67" width="50" height="20" as="geometry" />
        </mxCell>
        <mxCell id="uH7pmurkE3hfBIkgmpZg-6" value="" style="rounded=0;whiteSpace=wrap;html=1;rotation=15;" vertex="1" parent="uH7pmurkE3hfBIkgmpZg-13">
          <mxGeometry x="34" y="143" width="50" height="20" as="geometry" />
        </mxCell>
        <mxCell id="uH7pmurkE3hfBIkgmpZg-7" value="" style="rounded=0;whiteSpace=wrap;html=1;rotation=-50;" vertex="1" parent="uH7pmurkE3hfBIkgmpZg-13">
          <mxGeometry x="111" y="117" width="50" height="20" as="geometry" />
        </mxCell>
        <mxCell id="uH7pmurkE3hfBIkgmpZg-25" value="3" style="text;html=1;align=center;verticalAlign=middle;resizable=0;points=[];autosize=1;strokeColor=none;fillColor=none;rotation=0;" vertex="1" parent="uH7pmurkE3hfBIkgmpZg-13">
          <mxGeometry x="-30" y="57" width="30" height="30" as="geometry" />
        </mxCell>
        <mxCell id="uH7pmurkE3hfBIkgmpZg-26" value="4" style="text;html=1;align=center;verticalAlign=middle;resizable=0;points=[];autosize=1;strokeColor=none;fillColor=none;rotation=0;" vertex="1" parent="uH7pmurkE3hfBIkgmpZg-13">
          <mxGeometry x="38" y="155" width="30" height="30" as="geometry" />
        </mxCell>
        <mxCell id="uH7pmurkE3hfBIkgmpZg-32" value="R" style="text;html=1;align=center;verticalAlign=middle;resizable=0;points=[];autosize=1;strokeColor=none;fillColor=none;rotation=-15;" vertex="1" parent="uH7pmurkE3hfBIkgmpZg-13">
          <mxGeometry x="86" y="46" width="30" height="30" as="geometry" />
        </mxCell>
        <mxCell id="uH7pmurkE3hfBIkgmpZg-33" value="𝜃&lt;sub&gt;1&lt;/sub&gt;=𝜃&lt;sub&gt;R&lt;/sub&gt;" style="text;html=1;align=center;verticalAlign=middle;resizable=0;points=[];autosize=1;strokeColor=none;fillColor=none;" vertex="1" parent="uH7pmurkE3hfBIkgmpZg-13">
          <mxGeometry x="88.67093135166606" y="61.002340177698784" width="60" height="30" as="geometry" />
        </mxCell>
        <mxCell id="uH7pmurkE3hfBIkgmpZg-31" value="" style="endArrow=classic;startArrow=classic;html=1;rounded=0;entryX=1;entryY=0.5;entryDx=0;entryDy=0;" edge="1" parent="uH7pmurkE3hfBIkgmpZg-34" target="uH7pmurkE3hfBIkgmpZg-1">
          <mxGeometry width="50" height="50" relative="1" as="geometry">
            <mxPoint x="99.20328174448204" y="102.51935798687195" as="sourcePoint" />
            <mxPoint x="169.20328174448204" y="62.51935798687195" as="targetPoint" />
          </mxGeometry>
        </mxCell>
        <mxCell id="uH7pmurkE3hfBIkgmpZg-16" value="2" style="text;html=1;align=center;verticalAlign=middle;resizable=0;points=[];autosize=1;strokeColor=none;fillColor=none;rotation=0;" vertex="1" parent="uH7pmurkE3hfBIkgmpZg-34">
          <mxGeometry x="60.34235039281596" y="-0.0029821908268345965" width="30" height="30" as="geometry" />
        </mxCell>
        <mxCell id="uH7pmurkE3hfBIkgmpZg-8" value="" style="endArrow=classic;html=1;rounded=0;" edge="1" parent="1">
          <mxGeometry width="50" height="50" relative="1" as="geometry">
            <mxPoint x="230" y="219.66" as="sourcePoint" />
            <mxPoint x="490" y="220" as="targetPoint" />
          </mxGeometry>
        </mxCell>
        <mxCell id="uH7pmurkE3hfBIkgmpZg-9" value="X&lt;sub&gt;R&lt;/sub&gt;" style="text;html=1;align=center;verticalAlign=middle;resizable=0;points=[];autosize=1;strokeColor=none;fillColor=none;" vertex="1" parent="1">
          <mxGeometry x="460" y="220" width="40" height="30" as="geometry" />
        </mxCell>
        <mxCell id="uH7pmurkE3hfBIkgmpZg-11" value="" style="endArrow=classic;html=1;rounded=0;" edge="1" parent="1">
          <mxGeometry width="50" height="50" relative="1" as="geometry">
            <mxPoint x="340" y="330" as="sourcePoint" />
            <mxPoint x="340" y="70" as="targetPoint" />
          </mxGeometry>
        </mxCell>
        <mxCell id="uH7pmurkE3hfBIkgmpZg-12" value="Y&lt;sub&gt;R&lt;/sub&gt;" style="text;html=1;align=center;verticalAlign=middle;resizable=0;points=[];autosize=1;strokeColor=none;fillColor=none;" vertex="1" parent="1">
          <mxGeometry x="304" y="70" width="40" height="30" as="geometry" />
        </mxCell>
        <mxCell id="uH7pmurkE3hfBIkgmpZg-15" value="1" style="text;html=1;align=center;verticalAlign=middle;resizable=0;points=[];autosize=1;strokeColor=none;fillColor=none;" vertex="1" parent="1">
          <mxGeometry x="414" y="170" width="30" height="30" as="geometry" />
        </mxCell>
        <mxCell id="uH7pmurkE3hfBIkgmpZg-27" value="5" style="text;html=1;align=center;verticalAlign=middle;resizable=0;points=[];autosize=1;strokeColor=none;fillColor=none;" vertex="1" parent="1">
          <mxGeometry x="384" y="280.13" width="30" height="30" as="geometry" />
        </mxCell>
      </root>
    </mxGraphModel>
  </diagram>
</mxfile>
